M48
;Layer_Color=9474304
;FILE_FORMAT=2:5
INCH,LZ
;TYPE=PLATED
T01F00S00C0.00787
T02F00S00C0.01968
T04F00S00C0.02800
T05F00S00C0.04016
T06F00S00C0.07874
%
T01
X0106102Y009626
Y0100591
X0110433
Y009626
T02
X0107283Y008563
X0103347Y0113189
X0089567Y0109252
X0129921Y0106299
Y0097441
T04
X0029528Y0076772
X0025591Y0098425
X0074803Y0066929
X0102362Y0035433
T05
X0013622Y0041339
X0023622
X0033622
X0043622
T06
X0019685Y0019685
X0137795
Y0137795
X0019685
M30
