M48
;Layer_Color=9474304
;FILE_FORMAT=2:5
INCH,LZ
;TYPE=PLATED
T01F00S00C0.00787
T03F00S00C0.02800
T04F00S00C0.04016
T05F00S00C0.07874
%
T01
X0014173Y0006299
X0022047
X0029921
X0037795
X0045669
X0053543
X0069291
X0077166
X008504
X0108662
X0116536
X012441
X0132284
X0140158
X012441Y0014173
Y0022047
Y0029921
Y0037795
X0132284
X0140158
X0148032
Y0029921
Y0061417
Y0069291
Y0077166
Y008504
Y0092914
Y0100787
Y0108662
Y0116536
Y012441
X0140158
X0148032Y0148032
X012441
Y0140158
X0116536Y0148032
X0069291
X0053543
Y0140158
Y0132284
X0045669
Y0140158
Y0148032
X0037795
Y0140158
Y0132284
Y012441
X0029921
X0022047
Y0116536
Y0108662
X0014173
Y0116536
Y012441
X0029921Y0148032
X0069291Y0108662
Y0100787
X0100197Y0098622
X0104528
Y0094291
X0100197
X0100787Y0069291
X0108662
X0116536
X012441
X0132284
Y0077166
X012441Y0061417
X0116536
X0108662
X0092914Y0069291
X0069291Y0053543
Y0045669
X0061417Y0037795
Y0029921
X0053543
Y0022047
Y0014173
X0045669
Y0022047
X0037795
Y0014173
X0108662
X0116536
Y0022047
Y0029921
X0108662Y0022047
X0053543Y0069291
Y0077166
X0014173
Y0069291
Y0061417
X0092914Y0116536
X0006299
Y012441
Y0132284
Y0140158
Y0108662
Y0100787
Y0092914
Y008504
Y0077166
Y0069291
Y0061417
Y0053543
Y0029921
Y0022047
Y0014173
T03
X0057087Y0045276
X0027559Y0076772
X0021654Y0094488
X0082677Y0106299
X0106299Y0116142
X0122047Y0102362
Y0082677
T04
X0019685Y0041339
X0029685
X0039685
X0009685
T05
X0019685Y0019685
X0137795
Y0137795
X0019685
M30
