G04*
G04 #@! TF.GenerationSoftware,Altium Limited,Altium Designer,25.8.1 (18)*
G04*
G04 Layer_Color=16711935*
%FSLAX25Y25*%
%MOIN*%
G70*
G04*
G04 #@! TF.SameCoordinates,45097E57-D6D4-4368-9298-5D8CD2504E13*
G04*
G04*
G04 #@! TF.FilePolarity,Positive*
G04*
G01*
G75*
%ADD12C,0.00787*%
%ADD13C,0.00500*%
%ADD61C,0.00394*%
D12*
X123425Y105512D02*
X124606D01*
X123425Y103150D02*
Y105512D01*
Y103150D02*
X124606D01*
Y105512D01*
X39370Y75787D02*
Y77756D01*
X35433D02*
X39370D01*
X35433Y75787D02*
Y77756D01*
Y75787D02*
X39370D01*
X84646Y115551D02*
X94488D01*
X84646Y102953D02*
Y115551D01*
Y102953D02*
X94488D01*
Y115551D01*
X112975Y112598D02*
Y113779D01*
X110613D02*
X112975D01*
X110613Y112598D02*
Y113779D01*
Y112598D02*
X112975D01*
X123031Y92520D02*
X125000D01*
Y96457D01*
X123031D02*
X125000D01*
X123031Y92520D02*
Y96457D01*
X11614Y89173D02*
X17913D01*
Y101772D01*
X11614D02*
X17913D01*
X11614Y89173D02*
Y101772D01*
X79528Y93701D02*
X85827D01*
X79528Y81496D02*
Y93701D01*
Y81496D02*
X85827D01*
Y93701D01*
X66732Y87795D02*
X73032D01*
X66732Y75590D02*
Y87795D01*
Y75590D02*
X73032D01*
Y87795D01*
X90748Y65354D02*
Y68504D01*
X84449D02*
X90748D01*
X84449Y65354D02*
Y68504D01*
Y65354D02*
X90748D01*
X85640Y34439D02*
Y60049D01*
X71841D02*
X85640D01*
X71841Y34439D02*
Y60049D01*
Y34439D02*
X85640D01*
X100787Y47441D02*
X103937D01*
X100787Y41142D02*
Y47441D01*
Y41142D02*
X103937D01*
Y47441D01*
D13*
X61142Y21634D02*
X96339D01*
Y-5531D02*
Y21634D01*
X61142Y-5531D02*
X96339D01*
X61142D02*
Y21634D01*
Y135846D02*
X96339D01*
X61142D02*
Y163012D01*
X96339D01*
Y135846D02*
Y163012D01*
D61*
X49370Y36339D02*
Y46339D01*
X7874Y36339D02*
X49370D01*
X7874D02*
Y46339D01*
X49370D01*
X100394Y106299D02*
X116142D01*
Y90551D02*
Y106299D01*
X100394Y90551D02*
X116142D01*
X100394D02*
Y106299D01*
X120472Y55512D02*
X125591Y60630D01*
X147244D01*
Y33858D02*
Y60630D01*
X125591Y33858D02*
X147244D01*
X120472Y38976D02*
X125591Y33858D01*
X120472Y38976D02*
Y55512D01*
M02*
