G04*
G04 #@! TF.GenerationSoftware,Altium Limited,Altium Designer,25.8.1 (18)*
G04*
G04 Layer_Color=8421504*
%FSLAX25Y25*%
%MOIN*%
G70*
G04*
G04 #@! TF.SameCoordinates,45097E57-D6D4-4368-9298-5D8CD2504E13*
G04*
G04*
G04 #@! TF.FilePolarity,Positive*
G04*
G01*
G75*
%ADD17R,0.01822X0.02182*%
%ADD18R,0.02182X0.01822*%
%ADD19R,0.01378X0.03150*%
%ADD20R,0.03347X0.01378*%
%ADD21R,0.01860X0.02029*%
%ADD22R,0.10236X0.10630*%
%ADD23R,0.12598X0.06299*%
%ADD24R,0.03568X0.03563*%
%ADD25R,0.03543X0.04528*%
%ADD26R,0.10646X0.02965*%
%ADD27R,0.07890X0.07296*%
%ADD28R,0.05906X0.01772*%
%ADD29R,0.03954X0.03434*%
%ADD30R,0.04758X0.03985*%
%ADD31R,0.02029X0.01860*%
%ADD32R,0.06741X0.04166*%
G04:AMPARAMS|DCode=33|XSize=39.54mil|YSize=34.34mil|CornerRadius=17.17mil|HoleSize=0mil|Usage=FLASHONLY|Rotation=180.000|XOffset=0mil|YOffset=0mil|HoleType=Round|Shape=RoundedRectangle|*
%AMROUNDEDRECTD33*
21,1,0.03954,0.00000,0,0,180.0*
21,1,0.00520,0.03434,0,0,180.0*
1,1,0.03434,-0.00260,0.00000*
1,1,0.03434,0.00260,0.00000*
1,1,0.03434,0.00260,0.00000*
1,1,0.03434,-0.00260,0.00000*
%
%ADD33ROUNDEDRECTD33*%
G04:AMPARAMS|DCode=34|XSize=39.54mil|YSize=125.28mil|CornerRadius=17.2mil|HoleSize=0mil|Usage=FLASHONLY|Rotation=180.000|XOffset=0mil|YOffset=0mil|HoleType=Round|Shape=RoundedRectangle|*
%AMROUNDEDRECTD34*
21,1,0.03954,0.09088,0,0,180.0*
21,1,0.00514,0.12528,0,0,180.0*
1,1,0.03440,-0.00257,0.04544*
1,1,0.03440,0.00257,0.04544*
1,1,0.03440,0.00257,-0.04544*
1,1,0.03440,-0.00257,-0.04544*
%
%ADD34ROUNDEDRECTD34*%
%ADD35R,0.02756X0.04528*%
%ADD36R,0.03150X0.04528*%
D17*
X124016Y105726D02*
D03*
Y102936D02*
D03*
D18*
X110399Y113189D02*
D03*
X113189D02*
D03*
D19*
X103347Y106299D02*
D03*
Y90551D02*
D03*
X113189Y106299D02*
D03*
X111221D02*
D03*
X109252D02*
D03*
X107283D02*
D03*
X105315D02*
D03*
X113189Y90551D02*
D03*
X111221D02*
D03*
X109252D02*
D03*
X107283D02*
D03*
X105315D02*
D03*
D20*
X116043Y97441D02*
D03*
Y101378D02*
D03*
Y95472D02*
D03*
X100492Y103347D02*
D03*
Y101378D02*
D03*
Y99410D02*
D03*
Y97441D02*
D03*
Y95472D02*
D03*
Y93504D02*
D03*
X116043Y103347D02*
D03*
Y99410D02*
D03*
Y93504D02*
D03*
D21*
X124016Y95979D02*
D03*
Y92998D02*
D03*
D22*
X108268Y98425D02*
D03*
D23*
X143701Y47244D02*
D03*
X124016D02*
D03*
D24*
X102362Y41927D02*
D03*
Y46656D02*
D03*
D25*
X67913Y137795D02*
D03*
X89567D02*
D03*
Y19685D02*
D03*
X67913D02*
D03*
D26*
X89567Y115453D02*
D03*
Y103051D02*
D03*
D27*
X14764Y100888D02*
D03*
Y90057D02*
D03*
D28*
X32874Y95571D02*
D03*
Y90453D02*
D03*
Y110925D02*
D03*
Y108366D02*
D03*
Y105807D02*
D03*
Y103248D02*
D03*
Y100689D02*
D03*
Y98130D02*
D03*
Y93012D02*
D03*
Y87894D02*
D03*
X55709D02*
D03*
Y90453D02*
D03*
Y93012D02*
D03*
Y95571D02*
D03*
Y98130D02*
D03*
Y100689D02*
D03*
Y103248D02*
D03*
Y105807D02*
D03*
Y108366D02*
D03*
Y110925D02*
D03*
D29*
X91713Y38228D02*
D03*
D30*
X84442Y66929D02*
D03*
X90755D02*
D03*
D31*
X35911Y76772D02*
D03*
X38892D02*
D03*
D32*
X82677Y81980D02*
D03*
X69882Y76075D02*
D03*
X82677Y93217D02*
D03*
X69882Y87311D02*
D03*
D33*
X91713Y47244D02*
D03*
Y56260D02*
D03*
D34*
X65768Y47244D02*
D03*
D35*
X80709Y137795D02*
D03*
X76772Y19685D02*
D03*
X80709D02*
D03*
X76772Y137795D02*
D03*
D36*
X84724Y19685D02*
D03*
X72756D02*
D03*
Y137795D02*
D03*
X84724D02*
D03*
M02*
