G04*
G04 #@! TF.GenerationSoftware,Altium Limited,Altium Designer,25.8.1 (18)*
G04*
G04 Layer_Physical_Order=2*
G04 Layer_Color=16711680*
%FSLAX25Y25*%
%MOIN*%
G70*
G04*
G04 #@! TF.SameCoordinates,45097E57-D6D4-4368-9298-5D8CD2504E13*
G04*
G04*
G04 #@! TF.FilePolarity,Positive*
G04*
G01*
G75*
%ADD54O,0.03937X0.07874*%
%ADD55C,0.06102*%
%ADD56R,0.06102X0.06102*%
%ADD57C,0.05000*%
%ADD58C,0.15748*%
%ADD59C,0.03937*%
%ADD60C,0.01968*%
G36*
X141644Y157143D02*
X144136Y156476D01*
X146520Y155488D01*
X148755Y154198D01*
X150802Y152627D01*
X152627Y150802D01*
X154198Y148755D01*
X155488Y146520D01*
X156476Y144136D01*
X157143Y141644D01*
X157480Y139085D01*
Y137795D01*
Y19685D01*
Y18395D01*
X157143Y15836D01*
X156476Y13344D01*
X155488Y10960D01*
X154198Y8725D01*
X152627Y6678D01*
X150802Y4853D01*
X148755Y3282D01*
X146520Y1992D01*
X144136Y1005D01*
X141644Y337D01*
X139085Y0D01*
X19685D01*
X18395Y-0D01*
X15836Y337D01*
X13344Y1005D01*
X10960Y1992D01*
X8725Y3282D01*
X6678Y4853D01*
X4853Y6678D01*
X3282Y8725D01*
X1992Y10960D01*
X1005Y13344D01*
X337Y15836D01*
X-0Y18395D01*
X0Y19685D01*
Y19685D01*
X0Y137795D01*
Y139085D01*
X337Y141644D01*
X1005Y144136D01*
X1992Y146520D01*
X3282Y148755D01*
X4853Y150802D01*
X6678Y152627D01*
X8725Y154198D01*
X10960Y155488D01*
X13344Y156476D01*
X15836Y157143D01*
X18395Y157480D01*
X19685Y157480D01*
X19685Y157480D01*
X139085D01*
X141644Y157143D01*
D02*
G37*
%LPC*%
G36*
X44090Y44890D02*
X43154D01*
X42251Y44648D01*
X41442Y44180D01*
X40780Y43519D01*
X40313Y42709D01*
X40071Y41806D01*
Y40871D01*
X40313Y39968D01*
X40780Y39158D01*
X41442Y38497D01*
X42251Y38029D01*
X43154Y37787D01*
X44090D01*
X44993Y38029D01*
X45803Y38497D01*
X46464Y39158D01*
X46931Y39968D01*
X47173Y40871D01*
Y41806D01*
X46931Y42709D01*
X46464Y43519D01*
X45803Y44180D01*
X44993Y44648D01*
X44090Y44890D01*
D02*
G37*
G36*
X34090D02*
X33154D01*
X32251Y44648D01*
X31442Y44180D01*
X30780Y43519D01*
X30313Y42709D01*
X30071Y41806D01*
Y40871D01*
X30313Y39968D01*
X30780Y39158D01*
X31442Y38497D01*
X32251Y38029D01*
X33154Y37787D01*
X34090D01*
X34993Y38029D01*
X35803Y38497D01*
X36464Y39158D01*
X36931Y39968D01*
X37173Y40871D01*
Y41806D01*
X36931Y42709D01*
X36464Y43519D01*
X35803Y44180D01*
X34993Y44648D01*
X34090Y44890D01*
D02*
G37*
G36*
X17173D02*
X10071D01*
Y37787D01*
X17173D01*
Y44890D01*
D02*
G37*
%LPD*%
D54*
X95748Y152776D02*
D03*
Y4705D02*
D03*
Y137815D02*
D03*
X61732Y152776D02*
D03*
Y137815D02*
D03*
X95748Y19665D02*
D03*
X61732Y4705D02*
D03*
Y19665D02*
D03*
D55*
X23622Y41339D02*
D03*
X33622D02*
D03*
X43622D02*
D03*
D56*
X13622D02*
D03*
D57*
X29528Y76772D02*
D03*
X102362Y35433D02*
D03*
X25591Y98425D02*
D03*
X74803Y66929D02*
D03*
D58*
X137795Y137795D02*
D03*
Y19685D02*
D03*
X19685Y137795D02*
D03*
Y19685D02*
D03*
D59*
X129921Y106299D02*
D03*
X103347Y113189D02*
D03*
X129921Y97441D02*
D03*
X107283Y85630D02*
D03*
X89567Y109252D02*
D03*
D60*
X110433Y100591D02*
D03*
X106102D02*
D03*
X110433Y96260D02*
D03*
X106102D02*
D03*
M02*
