G04*
G04 #@! TF.GenerationSoftware,Altium Limited,Altium Designer,25.8.1 (18)*
G04*
G04 Layer_Color=16711935*
%FSLAX25Y25*%
%MOIN*%
G70*
G04*
G04 #@! TF.SameCoordinates,45097E57-D6D4-4368-9298-5D8CD2504E13*
G04*
G04*
G04 #@! TF.FilePolarity,Positive*
G04*
G01*
G75*
%ADD61C,0.00394*%
D61*
X340551Y138779D02*
G03*
X320866Y158465I-19685J0D01*
G01*
Y984D02*
G03*
X340551Y20669I-0J19685D01*
G01*
X183071D02*
G03*
X202756Y984I19685J-0D01*
G01*
X202756Y158465D02*
G03*
X183071Y138779I-0J-19685D01*
G01*
X19685Y157480D02*
G03*
X-0Y137795I-0J-19685D01*
G01*
X157480D02*
G03*
X137795Y157480I-19685J0D01*
G01*
Y0D02*
G03*
X157480Y19685I-0J19685D01*
G01*
X-0D02*
G03*
X19685Y-0I19685J-0D01*
G01*
X340551Y20669D02*
Y138779D01*
X202756Y158465D02*
X320866D01*
X202756Y984D02*
X320866D01*
X183071Y109252D02*
Y138779D01*
Y20669D02*
Y50197D01*
Y109252D01*
X0Y108268D02*
Y137795D01*
Y19685D02*
Y49213D01*
X19685Y0D02*
X137795D01*
X0Y19685D02*
X19685Y0D01*
X0Y49213D02*
Y108268D01*
X157480Y19685D02*
Y137795D01*
X137795Y0D02*
X157480Y19685D01*
X19685Y157480D02*
X137795D01*
X157480Y137795D01*
X0Y137795D02*
X19685Y157480D01*
M02*
