G04*
G04 #@! TF.GenerationSoftware,Altium Limited,Altium Designer,25.8.1 (18)*
G04*
G04 Layer_Color=32768*
%FSLAX25Y25*%
%MOIN*%
G70*
G04*
G04 #@! TF.SameCoordinates,5F4BCF80-B969-4178-B288-3F93E2E3A1E2*
G04*
G04*
G04 #@! TF.FilePolarity,Positive*
G04*
G01*
G75*
%ADD11C,0.00197*%
%ADD12C,0.00787*%
%ADD58C,0.00394*%
D11*
X118701Y34843D02*
Y63583D01*
X152953Y34843D02*
Y63583D01*
X118701D02*
X152953D01*
X118701Y34843D02*
X152953D01*
X117520Y73425D02*
X126575D01*
X117520Y91929D02*
X126575D01*
X117520Y73425D02*
Y91929D01*
X126575Y73425D02*
Y91929D01*
X98701Y132894D02*
Y163996D01*
X58780D02*
X98701D01*
X58780Y132894D02*
Y163996D01*
Y132894D02*
X98701D01*
X18307Y72244D02*
Y81299D01*
X36811Y72244D02*
Y81299D01*
X18307D02*
X36811D01*
X18307Y72244D02*
X36811D01*
X93898Y41929D02*
X102953D01*
X93898Y60433D02*
X102953D01*
X93898Y41929D02*
Y60433D01*
X102953Y41929D02*
Y60433D01*
X46319Y35453D02*
Y47224D01*
X3051Y35453D02*
X46319D01*
X3051D02*
Y47224D01*
X46319D01*
X92520Y86614D02*
X112205D01*
Y106299D01*
X92520D02*
X112205D01*
X92520Y86614D02*
Y106299D01*
X28937Y113386D02*
X59646D01*
Y85433D02*
Y113386D01*
X28937Y85433D02*
X59646D01*
X28937D02*
Y113386D01*
X58780Y24587D02*
X98701D01*
Y-6516D02*
Y24587D01*
X58780Y-6516D02*
X98701D01*
X58780D02*
Y24587D01*
D12*
X65541Y35838D02*
X91939D01*
Y66524D01*
X65541D02*
X91939D01*
X65541Y35838D02*
Y66524D01*
X98425Y112205D02*
Y120079D01*
Y112205D02*
X114173D01*
Y120079D01*
X98425D02*
X114173D01*
X118110Y94488D02*
X125984D01*
Y110236D01*
X118110D02*
X125984D01*
X118110Y94488D02*
Y110236D01*
X78839Y96752D02*
X86516D01*
Y115847D01*
X78839D02*
X86516D01*
X78839Y96752D02*
Y115847D01*
X17520Y85433D02*
X25787D01*
Y103543D01*
X17520D02*
X25787D01*
X17520Y85433D02*
Y103543D01*
X53839Y60630D02*
X60335D01*
X53839Y49606D02*
Y60630D01*
Y49606D02*
X60335D01*
Y60630D01*
X78937Y75984D02*
X86417D01*
Y93307D01*
X78937D02*
X86417D01*
X78937Y75984D02*
Y93307D01*
X61221Y68110D02*
X68701D01*
Y85433D01*
X61221D02*
X68701D01*
X61221Y68110D02*
Y85433D01*
D58*
X133858Y49213D02*
X137795D01*
X135827Y47244D02*
Y51181D01*
X122047Y80709D02*
Y84646D01*
X120079Y82677D02*
X124016D01*
X25591Y76772D02*
X29528D01*
X27559Y74803D02*
Y78740D01*
X98425Y49213D02*
Y53150D01*
X96457Y51181D02*
X100394D01*
X100394Y96457D02*
X104331D01*
X102362Y94488D02*
Y98425D01*
M02*
