G04*
G04 #@! TF.GenerationSoftware,Altium Limited,Altium Designer,25.8.1 (18)*
G04*
G04 Layer_Color=8388736*
%FSLAX25Y25*%
%MOIN*%
G70*
G04*
G04 #@! TF.SameCoordinates,5F4BCF80-B969-4178-B288-3F93E2E3A1E2*
G04*
G04*
G04 #@! TF.FilePolarity,Negative*
G04*
G01*
G75*
%ADD16R,0.06693X0.03740*%
%ADD17R,0.03740X0.06693*%
%ADD24R,0.06299X0.04921*%
%ADD26R,0.05315X0.04331*%
%ADD28R,0.03434X0.03954*%
%ADD29R,0.05118X0.02756*%
G04:AMPARAMS|DCode=30|XSize=39.54mil|YSize=125.28mil|CornerRadius=17.2mil|HoleSize=0mil|Usage=FLASHONLY|Rotation=90.000|XOffset=0mil|YOffset=0mil|HoleType=Round|Shape=RoundedRectangle|*
%AMROUNDEDRECTD30*
21,1,0.03954,0.09088,0,0,90.0*
21,1,0.00514,0.12528,0,0,90.0*
1,1,0.03440,0.04544,0.00257*
1,1,0.03440,0.04544,-0.00257*
1,1,0.03440,-0.04544,-0.00257*
1,1,0.03440,-0.04544,0.00257*
%
%ADD30ROUNDEDRECTD30*%
G04:AMPARAMS|DCode=31|XSize=39.54mil|YSize=34.34mil|CornerRadius=17.17mil|HoleSize=0mil|Usage=FLASHONLY|Rotation=90.000|XOffset=0mil|YOffset=0mil|HoleType=Round|Shape=RoundedRectangle|*
%AMROUNDEDRECTD31*
21,1,0.03954,0.00000,0,0,90.0*
21,1,0.00520,0.03434,0,0,90.0*
1,1,0.03434,0.00000,0.00260*
1,1,0.03434,0.00000,-0.00260*
1,1,0.03434,0.00000,-0.00260*
1,1,0.03434,0.00000,0.00260*
%
%ADD31ROUNDEDRECTD31*%
%ADD32R,0.05906X0.03937*%
%ADD35R,0.04343X0.05328*%
%ADD36R,0.02178X0.03950*%
%ADD37R,0.04147X0.02178*%
%ADD38R,0.11036X0.11430*%
%ADD39R,0.13398X0.07099*%
%ADD40R,0.07887X0.05328*%
%ADD41R,0.06706X0.02572*%
%ADD42R,0.05328X0.07887*%
%ADD43R,0.03950X0.05328*%
%ADD44R,0.03556X0.05328*%
%ADD45O,0.04737X0.08674*%
%ADD46C,0.06902*%
%ADD47R,0.06902X0.06902*%
%ADD48C,0.02769*%
%ADD49C,0.05800*%
D16*
X122047Y107874D02*
D03*
Y96850D02*
D03*
D17*
X100787Y116142D02*
D03*
X111811D02*
D03*
D24*
X82677Y112992D02*
D03*
Y99606D02*
D03*
D26*
X21654Y100984D02*
D03*
Y87992D02*
D03*
D28*
X69724Y38209D02*
D03*
D29*
X57087Y51378D02*
D03*
Y58858D02*
D03*
D30*
X78740Y64153D02*
D03*
D31*
X87756Y38209D02*
D03*
X78740D02*
D03*
D32*
X82677Y78347D02*
D03*
X64961Y70472D02*
D03*
X82677Y90945D02*
D03*
X64961Y83071D02*
D03*
D35*
X89567Y137795D02*
D03*
Y19685D02*
D03*
X67913Y137795D02*
D03*
Y19685D02*
D03*
D36*
X97441Y104331D02*
D03*
Y88583D02*
D03*
X107283Y104331D02*
D03*
X105315D02*
D03*
X103347D02*
D03*
X101378D02*
D03*
X99410D02*
D03*
X107283Y88583D02*
D03*
X105315D02*
D03*
X103347D02*
D03*
X101378D02*
D03*
X99410D02*
D03*
D37*
X110138Y95473D02*
D03*
Y99410D02*
D03*
Y93504D02*
D03*
Y97441D02*
D03*
X94587Y101378D02*
D03*
Y99410D02*
D03*
Y97441D02*
D03*
Y95473D02*
D03*
Y93504D02*
D03*
Y91535D02*
D03*
X110138Y101378D02*
D03*
Y91535D02*
D03*
D38*
X102362Y96457D02*
D03*
D39*
X145669Y49213D02*
D03*
X125984D02*
D03*
D40*
X122047Y76772D02*
D03*
X98425Y45276D02*
D03*
X122047Y88583D02*
D03*
X98425Y57087D02*
D03*
D41*
X32874Y95571D02*
D03*
Y90453D02*
D03*
Y105807D02*
D03*
Y110925D02*
D03*
Y108366D02*
D03*
Y103248D02*
D03*
Y100689D02*
D03*
Y98130D02*
D03*
Y93012D02*
D03*
Y87894D02*
D03*
X55709D02*
D03*
Y90453D02*
D03*
Y93012D02*
D03*
Y95571D02*
D03*
Y98130D02*
D03*
Y100689D02*
D03*
Y103248D02*
D03*
Y105807D02*
D03*
Y108366D02*
D03*
Y110925D02*
D03*
D42*
X21654Y76772D02*
D03*
X33465D02*
D03*
D43*
X84724Y137795D02*
D03*
X72756D02*
D03*
X84724Y19685D02*
D03*
X72756D02*
D03*
D44*
X76772Y137795D02*
D03*
X80709D02*
D03*
X76772Y19685D02*
D03*
X80709D02*
D03*
D45*
X95748Y137815D02*
D03*
Y152776D02*
D03*
Y19665D02*
D03*
Y4705D02*
D03*
X61732Y152776D02*
D03*
Y137815D02*
D03*
Y4705D02*
D03*
Y19665D02*
D03*
D46*
X19685Y41339D02*
D03*
X29685D02*
D03*
X39685D02*
D03*
D47*
X9685D02*
D03*
D48*
X148032Y148032D02*
D03*
Y124410D02*
D03*
Y116536D02*
D03*
Y108662D02*
D03*
Y100787D02*
D03*
Y92914D02*
D03*
Y85040D02*
D03*
Y77166D02*
D03*
Y69291D02*
D03*
Y61417D02*
D03*
Y37795D02*
D03*
Y29921D02*
D03*
X140158Y124410D02*
D03*
Y37795D02*
D03*
Y6299D02*
D03*
X132284Y77166D02*
D03*
Y69291D02*
D03*
Y37795D02*
D03*
Y6299D02*
D03*
X124410Y148032D02*
D03*
Y140158D02*
D03*
Y69291D02*
D03*
Y61417D02*
D03*
Y37795D02*
D03*
Y29921D02*
D03*
Y22047D02*
D03*
Y14173D02*
D03*
Y6299D02*
D03*
X116536Y148032D02*
D03*
Y69291D02*
D03*
Y61417D02*
D03*
Y29921D02*
D03*
Y22047D02*
D03*
Y14173D02*
D03*
Y6299D02*
D03*
X108662Y69291D02*
D03*
Y61417D02*
D03*
Y22047D02*
D03*
Y14173D02*
D03*
Y6299D02*
D03*
X100787Y69291D02*
D03*
X92914Y116536D02*
D03*
Y69291D02*
D03*
X85040Y6299D02*
D03*
X77166D02*
D03*
X69291Y148032D02*
D03*
Y108662D02*
D03*
Y100787D02*
D03*
Y53543D02*
D03*
Y45669D02*
D03*
Y6299D02*
D03*
X61417Y37795D02*
D03*
Y29921D02*
D03*
X53543Y148032D02*
D03*
Y140158D02*
D03*
Y132284D02*
D03*
Y77166D02*
D03*
Y69291D02*
D03*
Y29921D02*
D03*
Y22047D02*
D03*
Y14173D02*
D03*
Y6299D02*
D03*
X45669Y148032D02*
D03*
Y140158D02*
D03*
Y132284D02*
D03*
Y22047D02*
D03*
Y14173D02*
D03*
Y6299D02*
D03*
X37795Y148032D02*
D03*
Y140158D02*
D03*
Y132284D02*
D03*
Y124410D02*
D03*
Y22047D02*
D03*
Y14173D02*
D03*
Y6299D02*
D03*
X29921Y148032D02*
D03*
Y124410D02*
D03*
Y6299D02*
D03*
X22047Y124410D02*
D03*
Y116536D02*
D03*
Y108662D02*
D03*
Y6299D02*
D03*
X14173Y124410D02*
D03*
Y116536D02*
D03*
Y108662D02*
D03*
Y77166D02*
D03*
Y69291D02*
D03*
Y61417D02*
D03*
Y6299D02*
D03*
X6299Y140158D02*
D03*
Y132284D02*
D03*
Y124410D02*
D03*
Y116536D02*
D03*
Y108662D02*
D03*
Y100787D02*
D03*
Y92914D02*
D03*
Y85040D02*
D03*
Y77166D02*
D03*
Y69291D02*
D03*
Y61417D02*
D03*
Y53543D02*
D03*
Y29921D02*
D03*
Y22047D02*
D03*
Y14173D02*
D03*
X104528Y94291D02*
D03*
Y98622D02*
D03*
X100197Y94291D02*
D03*
Y98622D02*
D03*
D49*
X106299Y116142D02*
D03*
X122047Y102362D02*
D03*
Y82677D02*
D03*
X82677Y106299D02*
D03*
X21654Y94488D02*
D03*
X27559Y76772D02*
D03*
X57087Y45276D02*
D03*
M02*
