G04*
G04 #@! TF.GenerationSoftware,Altium Limited,Altium Designer,25.8.1 (18)*
G04*
G04 Layer_Color=16711935*
%FSLAX25Y25*%
%MOIN*%
G70*
G04*
G04 #@! TF.SameCoordinates,A983AF23-00B2-4BB8-8B37-399FEAB5BF34*
G04*
G04*
G04 #@! TF.FilePolarity,Negative*
G04*
G01*
G75*
%ADD45O,0.04737X0.08674*%
%ADD46C,0.06902*%
%ADD47R,0.06902X0.06902*%
%ADD48C,0.02769*%
%ADD57C,0.05800*%
D45*
X95748Y137815D02*
D03*
Y152776D02*
D03*
Y19665D02*
D03*
Y4705D02*
D03*
X61732Y152776D02*
D03*
Y137815D02*
D03*
Y4705D02*
D03*
Y19665D02*
D03*
D46*
X19685Y41339D02*
D03*
X29685D02*
D03*
X39685D02*
D03*
D47*
X9685D02*
D03*
D48*
X148032Y148032D02*
D03*
Y124410D02*
D03*
Y116536D02*
D03*
Y108662D02*
D03*
Y100787D02*
D03*
Y92914D02*
D03*
Y85040D02*
D03*
Y77166D02*
D03*
Y69291D02*
D03*
Y61417D02*
D03*
Y37795D02*
D03*
Y29921D02*
D03*
X140158Y124410D02*
D03*
Y37795D02*
D03*
Y6299D02*
D03*
X132284Y77166D02*
D03*
Y69291D02*
D03*
Y37795D02*
D03*
Y6299D02*
D03*
X124410Y148032D02*
D03*
Y140158D02*
D03*
Y69291D02*
D03*
Y61417D02*
D03*
Y37795D02*
D03*
Y29921D02*
D03*
Y22047D02*
D03*
Y14173D02*
D03*
Y6299D02*
D03*
X116536Y148032D02*
D03*
Y69291D02*
D03*
Y61417D02*
D03*
Y29921D02*
D03*
Y22047D02*
D03*
Y14173D02*
D03*
Y6299D02*
D03*
X108662Y69291D02*
D03*
Y61417D02*
D03*
Y22047D02*
D03*
Y14173D02*
D03*
Y6299D02*
D03*
X100787Y69291D02*
D03*
X92914Y116536D02*
D03*
Y69291D02*
D03*
X85040Y6299D02*
D03*
X77166D02*
D03*
X69291Y148032D02*
D03*
Y108662D02*
D03*
Y100787D02*
D03*
Y53543D02*
D03*
Y45669D02*
D03*
Y6299D02*
D03*
X61417Y37795D02*
D03*
Y29921D02*
D03*
X53543Y148032D02*
D03*
Y140158D02*
D03*
Y132284D02*
D03*
Y77166D02*
D03*
Y69291D02*
D03*
Y29921D02*
D03*
Y22047D02*
D03*
Y14173D02*
D03*
Y6299D02*
D03*
X45669Y148032D02*
D03*
Y140158D02*
D03*
Y132284D02*
D03*
Y22047D02*
D03*
Y14173D02*
D03*
Y6299D02*
D03*
X37795Y148032D02*
D03*
Y140158D02*
D03*
Y132284D02*
D03*
Y124410D02*
D03*
Y22047D02*
D03*
Y14173D02*
D03*
Y6299D02*
D03*
X29921Y148032D02*
D03*
Y124410D02*
D03*
Y6299D02*
D03*
X22047Y124410D02*
D03*
Y116536D02*
D03*
Y108662D02*
D03*
Y6299D02*
D03*
X14173Y124410D02*
D03*
Y116536D02*
D03*
Y108662D02*
D03*
Y77166D02*
D03*
Y69291D02*
D03*
Y61417D02*
D03*
Y6299D02*
D03*
X6299Y140158D02*
D03*
Y132284D02*
D03*
Y124410D02*
D03*
Y116536D02*
D03*
Y108662D02*
D03*
Y100787D02*
D03*
Y92914D02*
D03*
Y85040D02*
D03*
Y77166D02*
D03*
Y69291D02*
D03*
Y61417D02*
D03*
Y53543D02*
D03*
Y29921D02*
D03*
Y22047D02*
D03*
Y14173D02*
D03*
X104528Y94291D02*
D03*
Y98622D02*
D03*
X100197Y94291D02*
D03*
Y98622D02*
D03*
D57*
X106299Y116142D02*
D03*
X122047Y102362D02*
D03*
Y82677D02*
D03*
X82677Y106299D02*
D03*
X21654Y94488D02*
D03*
X27559Y76772D02*
D03*
X57087Y45276D02*
D03*
M02*
