G04*
G04 #@! TF.GenerationSoftware,Altium Limited,Altium Designer,25.8.1 (18)*
G04*
G04 Layer_Color=255*
%FSLAX25Y25*%
%MOIN*%
G70*
G04*
G04 #@! TF.SameCoordinates,5F4BCF80-B969-4178-B288-3F93E2E3A1E2*
G04*
G04*
G04 #@! TF.FilePolarity,Positive*
G04*
G01*
G75*
%ADD16R,0.06693X0.03740*%
%ADD17R,0.03740X0.06693*%
%ADD18R,0.03543X0.04528*%
%ADD19R,0.01378X0.03150*%
%ADD20R,0.03347X0.01378*%
%ADD21R,0.10236X0.10630*%
%ADD22R,0.12598X0.06299*%
%ADD23R,0.07087X0.04528*%
%ADD24R,0.06299X0.04921*%
%ADD25R,0.05906X0.01772*%
%ADD26R,0.05315X0.04331*%
%ADD27R,0.04528X0.07087*%
%ADD28R,0.03434X0.03954*%
%ADD29R,0.05118X0.02756*%
G04:AMPARAMS|DCode=30|XSize=39.54mil|YSize=125.28mil|CornerRadius=17.2mil|HoleSize=0mil|Usage=FLASHONLY|Rotation=90.000|XOffset=0mil|YOffset=0mil|HoleType=Round|Shape=RoundedRectangle|*
%AMROUNDEDRECTD30*
21,1,0.03954,0.09088,0,0,90.0*
21,1,0.00514,0.12528,0,0,90.0*
1,1,0.03440,0.04544,0.00257*
1,1,0.03440,0.04544,-0.00257*
1,1,0.03440,-0.04544,-0.00257*
1,1,0.03440,-0.04544,0.00257*
%
%ADD30ROUNDEDRECTD30*%
G04:AMPARAMS|DCode=31|XSize=39.54mil|YSize=34.34mil|CornerRadius=17.17mil|HoleSize=0mil|Usage=FLASHONLY|Rotation=90.000|XOffset=0mil|YOffset=0mil|HoleType=Round|Shape=RoundedRectangle|*
%AMROUNDEDRECTD31*
21,1,0.03954,0.00000,0,0,90.0*
21,1,0.00520,0.03434,0,0,90.0*
1,1,0.03434,0.00000,0.00260*
1,1,0.03434,0.00000,-0.00260*
1,1,0.03434,0.00000,-0.00260*
1,1,0.03434,0.00000,0.00260*
%
%ADD31ROUNDEDRECTD31*%
%ADD32R,0.05906X0.03937*%
%ADD33R,0.03150X0.04528*%
%ADD34R,0.02756X0.04528*%
%ADD52O,0.03937X0.07874*%
%ADD53C,0.06102*%
%ADD54R,0.06102X0.06102*%
D16*
X122047Y107874D02*
D03*
Y96850D02*
D03*
D17*
X100787Y116142D02*
D03*
X111811D02*
D03*
D18*
X89567Y137795D02*
D03*
Y19685D02*
D03*
X67913Y137795D02*
D03*
Y19685D02*
D03*
D19*
X97441Y104331D02*
D03*
Y88583D02*
D03*
X107283Y104331D02*
D03*
X105315D02*
D03*
X103347D02*
D03*
X101378D02*
D03*
X99410D02*
D03*
X107283Y88583D02*
D03*
X105315D02*
D03*
X103347D02*
D03*
X101378D02*
D03*
X99410D02*
D03*
D20*
X110138Y95473D02*
D03*
Y99410D02*
D03*
Y93504D02*
D03*
Y97441D02*
D03*
X94587Y101378D02*
D03*
Y99410D02*
D03*
Y97441D02*
D03*
Y95473D02*
D03*
Y93504D02*
D03*
Y91535D02*
D03*
X110138Y101378D02*
D03*
Y91535D02*
D03*
D21*
X102362Y96457D02*
D03*
D22*
X145669Y49213D02*
D03*
X125984D02*
D03*
D23*
X122047Y76772D02*
D03*
X98425Y45276D02*
D03*
X122047Y88583D02*
D03*
X98425Y57087D02*
D03*
D24*
X82677Y112992D02*
D03*
Y99606D02*
D03*
D25*
X32874Y95571D02*
D03*
Y90453D02*
D03*
Y105807D02*
D03*
Y110925D02*
D03*
Y108366D02*
D03*
Y103248D02*
D03*
Y100689D02*
D03*
Y98130D02*
D03*
Y93012D02*
D03*
Y87894D02*
D03*
X55709D02*
D03*
Y90453D02*
D03*
Y93012D02*
D03*
Y95571D02*
D03*
Y98130D02*
D03*
Y100689D02*
D03*
Y103248D02*
D03*
Y105807D02*
D03*
Y108366D02*
D03*
Y110925D02*
D03*
D26*
X21654Y100984D02*
D03*
Y87992D02*
D03*
D27*
X21654Y76772D02*
D03*
X33465D02*
D03*
D28*
X69724Y38209D02*
D03*
D29*
X57087Y51378D02*
D03*
Y58858D02*
D03*
D30*
X78740Y64153D02*
D03*
D31*
X87756Y38209D02*
D03*
X78740D02*
D03*
D32*
X82677Y78347D02*
D03*
X64961Y70472D02*
D03*
X82677Y90945D02*
D03*
X64961Y83071D02*
D03*
D33*
X84724Y137795D02*
D03*
X72756D02*
D03*
X84724Y19685D02*
D03*
X72756D02*
D03*
D34*
X76772Y137795D02*
D03*
X80709D02*
D03*
X76772Y19685D02*
D03*
X80709D02*
D03*
D52*
X95748Y137815D02*
D03*
Y152776D02*
D03*
Y19665D02*
D03*
Y4705D02*
D03*
X61732Y152776D02*
D03*
Y137815D02*
D03*
Y4705D02*
D03*
Y19665D02*
D03*
D53*
X19685Y41339D02*
D03*
X29685D02*
D03*
X39685D02*
D03*
D54*
X9685D02*
D03*
M02*
