G04*
G04 #@! TF.GenerationSoftware,Altium Limited,Altium Designer,25.8.1 (18)*
G04*
G04 Layer_Color=16711935*
%FSLAX25Y25*%
%MOIN*%
G70*
G04*
G04 #@! TF.SameCoordinates,A983AF23-00B2-4BB8-8B37-399FEAB5BF34*
G04*
G04*
G04 #@! TF.FilePolarity,Positive*
G04*
G01*
G75*
%ADD12C,0.00787*%
%ADD14C,0.00500*%
%ADD58C,0.00394*%
D12*
X65935Y44282D02*
X91545D01*
Y58081D01*
X65935D02*
X91545D01*
X65935Y44282D02*
Y58081D01*
X99606Y112598D02*
Y119685D01*
Y112598D02*
X112992D01*
Y119685D01*
X99606D02*
X112992D01*
X118504Y95669D02*
X125591D01*
Y109055D01*
X118504D02*
X125591D01*
X118504Y95669D02*
Y109055D01*
X79232Y99705D02*
X86122D01*
Y112894D01*
X79232D02*
X86122D01*
X79232Y99705D02*
Y112894D01*
X17913Y87598D02*
X25394D01*
Y101378D01*
X17913D02*
X25394D01*
X17913Y87598D02*
Y101378D01*
X54232Y59449D02*
X59941D01*
X54232Y50787D02*
Y59449D01*
Y50787D02*
X59941D01*
Y59449D01*
X79331Y78347D02*
X86024D01*
Y90945D01*
X79331D02*
X86024D01*
X79331Y78347D02*
Y90945D01*
X61614Y70472D02*
X68307D01*
Y83071D01*
X61614D02*
X68307D01*
X61614Y70472D02*
Y83071D01*
D14*
X96339Y135846D02*
Y163012D01*
X61142D02*
X96339D01*
X61142Y135846D02*
Y163012D01*
Y135846D02*
X96339D01*
X61142Y21634D02*
X96339D01*
Y-5531D02*
Y21634D01*
X61142Y-5531D02*
X96339D01*
X61142D02*
Y21634D01*
D58*
X122441Y57480D02*
X127559Y62598D01*
X149213D01*
Y35827D02*
Y62598D01*
X127559Y35827D02*
X149213D01*
X122441Y40945D02*
X127559Y35827D01*
X122441Y40945D02*
Y57480D01*
X118504Y75984D02*
X125591D01*
X118504Y89370D02*
X125591D01*
X118504Y75984D02*
Y89370D01*
X125591Y75984D02*
Y89370D01*
X20866Y73228D02*
Y80315D01*
X34252Y73228D02*
Y80315D01*
X20866D02*
X34252D01*
X20866Y73228D02*
X34252D01*
X94882Y44488D02*
X101969D01*
X94882Y57874D02*
X101969D01*
X94882Y44488D02*
Y57874D01*
X101969Y44488D02*
Y57874D01*
X45433Y36339D02*
Y46339D01*
X3937Y36339D02*
X45433D01*
X3937D02*
Y46339D01*
X45433D01*
X94488Y104331D02*
X110236D01*
Y88583D02*
Y104331D01*
X94488Y88583D02*
X110236D01*
X94488D02*
Y104331D01*
M02*
