G04*
G04 #@! TF.GenerationSoftware,Altium Limited,Altium Designer,25.8.1 (18)*
G04*
G04 Layer_Color=65535*
%FSLAX25Y25*%
%MOIN*%
G70*
G04*
G04 #@! TF.SameCoordinates,5F4BCF80-B969-4178-B288-3F93E2E3A1E2*
G04*
G04*
G04 #@! TF.FilePolarity,Positive*
G04*
G01*
G75*
%ADD10C,0.00984*%
%ADD11C,0.00197*%
%ADD12C,0.00787*%
%ADD13C,0.01575*%
%ADD14C,0.00500*%
%ADD15C,0.01000*%
D10*
X65453Y38209D02*
G03*
X65453Y38209I-492J0D01*
G01*
X97933Y84842D02*
G03*
X97933Y84842I-492J0D01*
G01*
D11*
X40447Y109646D02*
G03*
X40447Y109646I-880J0D01*
G01*
D02*
G03*
X40447Y109646I-880J0D01*
G01*
X33268Y113189D02*
G03*
X33268Y113189I-394J0D01*
G01*
D12*
X65935Y44282D02*
X91545D01*
Y58081D01*
X65935D02*
X91545D01*
X65935Y44282D02*
Y58081D01*
X104134Y112598D02*
X108465D01*
X104134Y119685D02*
X108465D01*
X122441Y53543D02*
Y57480D01*
X127559Y62598D01*
X122441Y40945D02*
X127559Y35827D01*
X122441Y40945D02*
Y44882D01*
X127559Y62598D02*
X149213D01*
Y53543D02*
Y62598D01*
Y35827D02*
Y44882D01*
X127559Y35827D02*
X149213D01*
X118898Y80512D02*
Y84842D01*
X125197Y80512D02*
Y84842D01*
X125591Y100197D02*
Y104528D01*
X118504Y100197D02*
Y104528D01*
X86122Y103543D02*
Y109055D01*
X79232Y103543D02*
Y109055D01*
X25394Y91634D02*
Y97342D01*
X17913Y91634D02*
Y97342D01*
X54232Y54232D02*
Y56004D01*
X59941Y54232D02*
Y56004D01*
X25394Y79921D02*
X29724D01*
X25394Y73622D02*
X29724D01*
X86024Y81791D02*
Y87500D01*
X79331Y81791D02*
Y87500D01*
X68307Y73917D02*
Y79626D01*
X61614Y73917D02*
Y79626D01*
X95276Y49016D02*
Y53347D01*
X101575Y49016D02*
Y53347D01*
X45433Y36339D02*
Y46339D01*
X3937Y36339D02*
X45433D01*
X3937D02*
Y46339D01*
X45433D01*
X93898Y103642D02*
Y104921D01*
X95177D01*
X109547D02*
X110827D01*
Y103642D02*
Y104921D01*
Y87992D02*
Y89272D01*
X109547Y87992D02*
X110827D01*
X93898D02*
Y89272D01*
Y87992D02*
X95177D01*
X37106Y112205D02*
X51476D01*
Y86614D02*
Y112205D01*
X37106Y86614D02*
X51476D01*
X37106D02*
Y112205D01*
D13*
X117717Y35827D02*
Y62598D01*
D14*
X61142Y163012D02*
X96339D01*
X61142Y143130D02*
Y147461D01*
Y158091D02*
Y163012D01*
X96339Y143130D02*
Y147461D01*
Y158091D02*
Y163012D01*
X61142Y-5531D02*
Y-610D01*
Y10020D02*
Y14350D01*
X96339Y-5531D02*
Y-610D01*
Y10020D02*
Y14350D01*
X61142Y-5531D02*
X96339D01*
D15*
X58117Y66806D02*
X52119D01*
Y69805D01*
X53119Y70804D01*
X55118D01*
X56118Y69805D01*
Y66806D01*
Y68805D02*
X58117Y70804D01*
Y76802D02*
Y72804D01*
X54118Y76802D01*
X53119D01*
X52119Y75803D01*
Y73804D01*
X53119Y72804D01*
X58117Y82801D02*
Y78802D01*
X54118Y82801D01*
X53119D01*
X52119Y81801D01*
Y79801D01*
X53119Y78802D01*
X76993Y75647D02*
X70995D01*
Y78646D01*
X71995Y79646D01*
X73994D01*
X74994Y78646D01*
Y75647D01*
Y77646D02*
X76993Y79646D01*
Y85644D02*
Y81645D01*
X72995Y85644D01*
X71995D01*
X70995Y84644D01*
Y82644D01*
X71995Y81645D01*
X76993Y87643D02*
Y89642D01*
Y88643D01*
X70995D01*
X71995Y87643D01*
X23622Y68928D02*
X22622Y69928D01*
X20623D01*
X19623Y68928D01*
Y64930D01*
X20623Y63930D01*
X22622D01*
X23622Y64930D01*
X25621Y63930D02*
X27621D01*
X26621D01*
Y69928D01*
X25621Y68928D01*
X52088Y38432D02*
Y33434D01*
X53088Y32434D01*
X55087D01*
X56087Y33434D01*
Y38432D01*
X58086Y37432D02*
X59086Y38432D01*
X61085D01*
X62085Y37432D01*
Y36433D01*
X61085Y35433D01*
X60086D01*
X61085D01*
X62085Y34433D01*
Y33434D01*
X61085Y32434D01*
X59086D01*
X58086Y33434D01*
X3993Y50293D02*
Y56291D01*
X6992D01*
X7992Y55291D01*
Y53292D01*
X6992Y52292D01*
X3993D01*
X9991Y50293D02*
X11990D01*
X10991D01*
Y56291D01*
X9991Y55291D01*
X134827Y43338D02*
X133827Y44338D01*
X131828D01*
X130828Y43338D01*
Y39339D01*
X131828Y38340D01*
X133827D01*
X134827Y39339D01*
X136826D02*
X137826Y38340D01*
X139825D01*
X140825Y39339D01*
Y43338D01*
X139825Y44338D01*
X137826D01*
X136826Y43338D01*
Y42338D01*
X137826Y41339D01*
X140825D01*
X98792Y68491D02*
X97792Y69491D01*
X95793D01*
X94793Y68491D01*
Y64493D01*
X95793Y63493D01*
X97792D01*
X98792Y64493D01*
X100791Y68491D02*
X101791Y69491D01*
X103790D01*
X104790Y68491D01*
Y67492D01*
X103790Y66492D01*
X104790Y65492D01*
Y64493D01*
X103790Y63493D01*
X101791D01*
X100791Y64493D01*
Y65492D01*
X101791Y66492D01*
X100791Y67492D01*
Y68491D01*
X101791Y66492D02*
X103790D01*
X51212Y56118D02*
X52212Y57117D01*
Y59117D01*
X51212Y60116D01*
X47213D01*
X46214Y59117D01*
Y57117D01*
X47213Y56118D01*
X52212Y54118D02*
Y50120D01*
X51212D01*
X47213Y54118D01*
X46214D01*
X111205Y127984D02*
X110205Y128983D01*
X108206D01*
X107206Y127984D01*
Y123985D01*
X108206Y122985D01*
X110205D01*
X111205Y123985D01*
X117203Y128983D02*
X115204Y127984D01*
X113204Y125984D01*
Y123985D01*
X114204Y122985D01*
X116203D01*
X117203Y123985D01*
Y124985D01*
X116203Y125984D01*
X113204D01*
X129890Y81678D02*
X128891Y80678D01*
Y78679D01*
X129890Y77679D01*
X133889D01*
X134889Y78679D01*
Y80678D01*
X133889Y81678D01*
X128891Y87676D02*
Y83677D01*
X131890D01*
X130890Y85676D01*
Y86676D01*
X131890Y87676D01*
X133889D01*
X134889Y86676D01*
Y84676D01*
X133889Y83677D01*
X129890Y101363D02*
X128891Y100363D01*
Y98364D01*
X129890Y97364D01*
X133889D01*
X134889Y98364D01*
Y100363D01*
X133889Y101363D01*
X134889Y106361D02*
X128891D01*
X131890Y103362D01*
Y107361D01*
X69867Y108299D02*
X68867Y109298D01*
X66867D01*
X65868Y108299D01*
Y104300D01*
X66867Y103300D01*
X68867D01*
X69867Y104300D01*
X71866Y108299D02*
X72865Y109298D01*
X74865D01*
X75864Y108299D01*
Y107299D01*
X74865Y106299D01*
X73865D01*
X74865D01*
X75864Y105299D01*
Y104300D01*
X74865Y103300D01*
X72865D01*
X71866Y104300D01*
X8843Y102393D02*
X7843Y103393D01*
X5844D01*
X4844Y102393D01*
Y98394D01*
X5844Y97395D01*
X7843D01*
X8843Y98394D01*
X14841Y97395D02*
X10842D01*
X14841Y101393D01*
Y102393D01*
X13841Y103393D01*
X11842D01*
X10842Y102393D01*
X95395Y81739D02*
Y76741D01*
X96395Y75741D01*
X98394D01*
X99394Y76741D01*
Y81739D01*
X105392Y75741D02*
X101393D01*
X105392Y79740D01*
Y80739D01*
X104392Y81739D01*
X102393D01*
X101393Y80739D01*
X40293Y102409D02*
Y97410D01*
X41292Y96410D01*
X43292D01*
X44291Y97410D01*
Y102409D01*
X46291Y96410D02*
X48290D01*
X47290D01*
Y102409D01*
X46291Y101409D01*
X63692Y173091D02*
X61692D01*
X62692D01*
Y168093D01*
X61692Y167093D01*
X60693D01*
X59693Y168093D01*
X69690Y167093D02*
X65691D01*
X69690Y171092D01*
Y172091D01*
X68690Y173091D01*
X66691D01*
X65691Y172091D01*
X51181Y10873D02*
X49182D01*
X50181D01*
Y5875D01*
X49182Y4875D01*
X48182D01*
X47182Y5875D01*
X53180Y4875D02*
X55180D01*
X54180D01*
Y10873D01*
X53180Y9873D01*
M02*
